<svg width="152" height="104" viewBox="0 0 152 104" fill="none" xmlns="http://www.w3.org/2000/svg">
<path d="M89.3044 23.3521C89.3044 32.5356 81.8461 39.9804 72.6464 39.9804H61.6191V1.71521H74.6103C82.7254 1.71521 89.3044 8.28242 89.3044 16.3835" stroke="#F7F7FF" stroke-width="2.96479"/>
<path fill-rule="evenodd" clip-rule="evenodd" d="M72.8416 17.417H70.499V19.7554V33.3898V35.7283H75.1842V33.3898V22.0938H89.7491C93.3021 22.0938 96.1833 24.9694 96.1833 28.5165C96.1833 32.1987 93.6741 35.2959 90.2693 36.1976C89.5533 37.0773 88.7244 37.9059 87.8166 38.6427C86.4511 39.7501 84.9783 40.5906 83.5482 41.0933V41.1396H85.8908H88.2225C95.2068 41.1396 100.869 35.4881 100.869 28.5165C100.869 22.3864 95.8902 17.417 89.7491 17.417H72.8416Z" fill="#F7F7FF"/>
<path d="M79.2402 56.6971H149.96" stroke="#F7F7FF" stroke-width="2.15621" stroke-linecap="square"/>
<path d="M1.71973 56.697H65.6397" stroke="#F7F7FF" stroke-width="2.15621" stroke-linecap="square"/>
<path d="M3.67471 83.1697V74.6984H10.729V72.0776H3.67471V66.2006H10.729V63.5798H0.810547V83.1697H3.67471ZM28.7473 75.7838C28.7473 71.6011 25.2732 68.1067 20.8178 68.1067C16.2564 68.1067 12.8883 71.7334 12.8883 75.7308C12.8883 79.437 15.8851 83.5403 20.8178 83.5403C25.8036 83.5403 28.7473 79.3576 28.7473 75.7838ZM25.9892 75.7838C25.9892 78.5634 23.7881 81.0254 20.8178 81.0254C17.7415 81.0254 15.6464 78.4575 15.6464 75.8102C15.6464 73.1894 17.715 70.6216 20.8178 70.6216C23.9207 70.6216 25.9892 73.1894 25.9892 75.7838ZM34.3113 83.1697V75.1484C34.3113 73.0571 35.0539 71.9452 35.929 71.4687C36.592 71.1246 37.4937 70.9393 37.918 70.9393V68.1067C37.2285 68.1332 35.3456 68.1861 34.1787 69.8274H34.1257V68.5038H31.5532V83.1697H34.3113ZM63.0228 83.1697V74.3278C63.0228 72.8982 62.731 71.707 62.2006 70.754C61.2459 69.1126 59.4956 68.1067 57.0292 68.1067C53.7408 68.1067 52.6534 69.8274 52.1761 70.5686C51.4335 68.9538 49.3915 68.1067 47.6146 68.1067C44.8831 68.1067 43.9284 69.4833 43.398 70.0921H43.3449V68.5038H40.799V83.1697H43.5571V74.9896C43.5571 73.9042 43.5571 70.6216 47.1903 70.6216C48.1981 70.6216 49.2324 70.9393 49.9219 71.9982C50.5053 72.9777 50.5584 73.7983 50.5318 75.0161V83.1697H53.2899V74.9896C53.3164 73.7718 53.2634 70.6216 56.7906 70.6216C60.1056 70.6216 60.2647 73.7718 60.2647 75.0161V83.1697H63.0228ZM85.5036 68.5038H82.5598L79.3244 78.034H79.2714L76.2216 68.5038H74.4182L71.3684 78.034H71.3154L68.0534 68.5038H65.11L70.5993 83.1697H72.111L75.2934 73.2953H75.3464L78.5288 83.1697H80.067L85.5036 68.5038ZM101.911 75.7838C101.911 71.6011 98.4365 68.1067 93.9811 68.1067C89.4197 68.1067 86.0516 71.7334 86.0516 75.7308C86.0516 79.437 89.0484 83.5403 93.9811 83.5403C98.9669 83.5403 101.911 79.3576 101.911 75.7838ZM99.1525 75.7838C99.1525 78.5634 96.9514 81.0254 93.9811 81.0254C90.9048 81.0254 88.8097 78.4575 88.8097 75.8102C88.8097 73.1894 90.8783 70.6216 93.9811 70.6216C97.084 70.6216 99.1525 73.1894 99.1525 75.7838ZM107.474 83.1697V75.1484C107.474 73.0571 108.217 71.9452 109.092 71.4687C109.755 71.1246 110.657 70.9393 111.081 70.9393V68.1067C110.392 68.1332 108.509 68.1861 107.342 69.8274H107.289V68.5038H104.716V83.1697H107.474ZM122.03 68.5038L116.805 75.572H116.752V63.5798H113.994V83.1697H116.752V75.572H116.805L122.693 83.1697H126.14L119.961 75.4132L125.292 68.5038H122.03ZM150.969 71.1246H147.866L145.718 75.4396L143.119 72.8982C145.692 71.654 146.408 69.8274 146.408 68.1861C146.408 65.2476 144.127 63.2092 141.528 63.2092C138.797 63.2092 136.569 65.3006 136.569 68.2126C136.569 70.0392 137.444 71.0716 138.452 72.1041C135.879 73.2424 134.686 75.4132 134.686 77.6898C134.686 80.9724 137.311 83.5403 140.679 83.5403C144.021 83.5403 145.745 81.0518 146.381 80.0988L149.802 83.5403L151.712 81.6078L147.76 77.5839L150.969 71.1246ZM141.104 70.9922C139.751 69.748 139.433 69.0068 139.433 68.2126C139.433 66.6242 140.494 65.83 141.502 65.83C142.35 65.83 143.544 66.4918 143.544 68.1067C143.544 69.5627 142.589 70.198 141.104 70.9922ZM144.472 78.1134C144.127 78.7487 143.04 80.9195 140.679 80.9195C138.664 80.9195 137.55 79.3311 137.55 77.6898C137.55 75.3337 139.247 74.4072 140.335 74.0366L144.472 78.1134Z" fill="#F47E00"/>
<path d="M35.8412 102.854V101.174H31.4722V90.2969H29.6362V102.854H35.8412ZM46.4889 102.854V93.4532H44.7209V94.7769H44.6869C44.0069 93.7417 42.7999 93.1987 41.4909 93.1987C38.1079 93.1987 36.4929 95.8969 36.4929 98.1878C36.4929 100.665 38.3119 103.092 41.4909 103.092C42.7659 103.092 44.0069 102.549 44.6869 101.395H44.7209V102.854H46.4889ZM44.7549 98.1708C44.7549 99.9696 43.3269 101.48 41.4739 101.48C39.6039 101.48 38.2609 99.8678 38.2609 98.1708C38.2609 96.6945 39.3149 94.8108 41.4909 94.8108C43.3099 94.8108 44.7549 96.1684 44.7549 98.1708ZM50.6071 102.854V101.497H50.6411C51.6101 102.787 53.0551 103.092 53.9221 103.092C56.6761 103.092 58.7671 100.869 58.7671 98.1538C58.7671 95.252 56.3871 93.1987 53.8881 93.1987C52.6131 93.1987 51.4231 93.6908 50.6581 94.7599H50.6241V90.2969H48.8561V102.854H50.6071ZM50.5731 98.1199C50.5731 96.4569 51.8481 94.8108 53.7861 94.8108C55.6391 94.8108 56.9991 96.389 56.9991 98.1538C56.9991 100.021 55.4861 101.48 53.7861 101.48C52.2051 101.48 50.5731 100.241 50.5731 98.1199ZM70.2328 98.1199C70.2328 95.4387 68.0058 93.1987 65.1502 93.1987C62.2262 93.1987 60.0672 95.5235 60.0672 98.086C60.0672 100.462 61.9882 103.092 65.1502 103.092C68.3458 103.092 70.2328 100.411 70.2328 98.1199ZM68.4648 98.1199C68.4648 99.9017 67.0538 101.48 65.1502 101.48C63.1782 101.48 61.8352 99.8338 61.8352 98.1369C61.8352 96.4569 63.1612 94.8108 65.1502 94.8108C67.1388 94.8108 68.4648 96.4569 68.4648 98.1199ZM72.0151 93.4532V98.5441C72.0151 100.428 72.4741 101.48 73.2561 102.159C73.9361 102.753 74.8711 103.092 75.9421 103.092C77.1321 103.092 78.2371 102.651 78.7131 101.836H78.7471V102.854H80.3621V93.4532H78.5941V98.4932C78.5941 100.547 77.5911 101.48 76.1291 101.48C74.8201 101.48 73.7831 100.869 73.7831 98.5441V93.4532H72.0151ZM84.4081 102.854V97.7126C84.4081 96.372 84.8841 95.6593 85.4451 95.3538C85.8701 95.1332 86.4481 95.0144 86.7201 95.0144V93.1987C86.2781 93.2157 85.0711 93.2496 84.3231 94.3017H84.2891V93.4532H82.6401V102.854H84.4081ZM101.794 102.854V90.2969H99.9577V95.7102H94.7727V90.2969H92.9367V102.854H94.7727V97.3902H99.9577V102.854H101.794ZM105.957 93.4532H104.189V102.854H105.957V93.4532ZM105.957 90.2969H104.189V92.3672H105.957V90.2969ZM110.008 102.854V97.7126C110.008 96.372 110.484 95.6593 111.045 95.3538C111.47 95.1332 112.048 95.0144 112.32 95.0144V93.1987C111.878 93.2157 110.671 93.2496 109.923 94.3017H109.889V93.4532H108.24V102.854H110.008ZM122.714 98.9175C122.731 98.7987 122.765 98.3235 122.765 98.0181C122.748 95.269 120.521 93.1987 117.971 93.1987C115.319 93.1987 113.143 95.3199 113.143 98.1369C113.143 100.801 115.268 103.092 117.937 103.092C119.399 103.092 121.558 102.328 122.459 99.9017H120.691C120.266 100.716 119.314 101.48 118.005 101.48C116.815 101.48 115.353 100.733 114.911 98.9175H122.714ZM114.911 97.5599C114.996 96.1854 116.254 94.8108 117.954 94.8108C119.654 94.8108 120.912 96.1854 120.997 97.5599H114.911Z" fill="#F47E00"/>
</svg>
