<svg width="140" height="103" viewBox="0 0 140 103" fill="none" xmlns="http://www.w3.org/2000/svg">
<path d="M67.4316 43.5525V52.5455" stroke="#2D3789" stroke-width="2.96479" stroke-linecap="square"/>
<path d="M82.6308 22.3952C82.6308 30.8409 75.8062 37.6874 67.3882 37.6874H57.2979V2.49707H69.1852C76.6108 2.49707 82.6308 8.53655 82.6308 15.9867" stroke="#2D3789" stroke-width="2.96479"/>
<path fill-rule="evenodd" clip-rule="evenodd" d="M67.5674 16.937H65.4238V19.0875V31.6263V33.7769H69.7109V31.6263V21.238H83.0383C86.2894 21.238 88.9258 23.8825 88.9258 27.1446C88.9258 30.5309 86.6298 33.3792 83.5143 34.2085C82.8591 35.0174 82.1006 35.7795 81.27 36.4571C80.0205 37.4755 78.6728 38.2485 77.3643 38.7108V38.7533H79.5078H81.6414C88.0323 38.7533 93.2129 33.556 93.2129 27.1446C93.2129 21.5071 88.6576 16.937 83.0383 16.937H67.5674Z" fill="#2D3789"/>
<path d="M73.4219 53.0605H138.133" stroke="#2D3789" stroke-width="2.15621" stroke-linecap="square"/>
<path d="M2.48828 53.0605H60.9772" stroke="#2D3789" stroke-width="2.15621" stroke-linecap="square"/>
<path d="M4.27705 77.406V69.6155H10.732V67.2053H4.27705V61.8006H10.732V59.3904H1.65625V77.406H4.27705ZM27.2193 70.6137C27.2193 66.7671 24.0404 63.5535 19.9636 63.5535C15.7897 63.5535 12.7078 66.8888 12.7078 70.565C12.7078 73.9733 15.45 77.7469 19.9636 77.7469C24.5257 77.7469 27.2193 73.9003 27.2193 70.6137ZM24.6956 70.6137C24.6956 73.1699 22.6814 75.4341 19.9636 75.4341C17.1486 75.4341 15.2316 73.0725 15.2316 70.638C15.2316 68.2278 17.1244 65.8663 19.9636 65.8663C22.8028 65.8663 24.6956 68.2278 24.6956 70.6137ZM32.3106 77.406V70.0294C32.3106 68.1061 32.99 67.0836 33.7908 66.6453C34.3975 66.3289 35.2226 66.1584 35.6108 66.1584V63.5535C34.9799 63.5778 33.257 63.6265 32.1892 65.1359H32.1407V63.9186H29.7868V77.406H32.3106ZM58.5825 77.406V69.2747C58.5825 67.96 58.3155 66.8645 57.8302 65.988C56.9566 64.4786 55.355 63.5535 53.0982 63.5535C50.0891 63.5535 49.0942 65.1359 48.6574 65.8176C47.9779 64.3325 46.1094 63.5535 44.4835 63.5535C41.9841 63.5535 41.1105 64.8194 40.6251 65.3794H40.5766V63.9186H38.247V77.406H40.7707V69.8833C40.7707 68.8851 40.7707 65.8663 44.0953 65.8663C45.0174 65.8663 45.9638 66.1584 46.5947 67.1323C47.1286 68.033 47.1771 68.7877 47.1529 69.9076V77.406H49.6766V69.8833C49.7009 68.7634 49.6523 65.8663 52.8798 65.8663C55.9131 65.8663 56.0587 68.7634 56.0587 69.9076V77.406H58.5825ZM79.1531 63.9186H76.4595L73.499 72.683H73.4505L70.6598 63.9186H69.0097L66.219 72.683H66.1705L63.1857 63.9186H60.4923L65.5153 77.406H66.8985L69.8105 68.3252H69.859L72.771 77.406H74.1785L79.1531 63.9186ZM94.1661 70.6137C94.1661 66.7671 90.9872 63.5535 86.9104 63.5535C82.7365 63.5535 79.6546 66.8888 79.6546 70.565C79.6546 73.9733 82.3968 77.7469 86.9104 77.7469C91.4725 77.7469 94.1661 73.9003 94.1661 70.6137ZM91.6424 70.6137C91.6424 73.1699 89.6282 75.4341 86.9104 75.4341C84.0954 75.4341 82.1784 73.0725 82.1784 70.638C82.1784 68.2278 84.0712 65.8663 86.9104 65.8663C89.7496 65.8663 91.6424 68.2278 91.6424 70.6137ZM99.2571 77.406V70.0294C99.2571 68.1061 99.9366 67.0836 100.737 66.6453C101.344 66.3289 102.169 66.1584 102.557 66.1584V63.5535C101.926 63.5778 100.204 63.6265 99.1358 65.1359H99.0873V63.9186H96.7334V77.406H99.2571ZM112.576 63.9186L107.795 70.4189H107.747V59.3904H105.223V77.406H107.747V70.4189H107.795L113.182 77.406H116.337L110.683 70.2728L115.561 63.9186H112.576ZM139.056 66.3288H136.217L134.252 70.2972L131.873 67.96C134.227 66.8158 134.882 65.1359 134.882 63.6265C134.882 60.9242 132.796 59.0496 130.417 59.0496C127.918 59.0496 125.88 60.9728 125.88 63.6508C125.88 65.3307 126.68 66.2802 127.602 67.2296C125.249 68.2765 124.157 70.2728 124.157 72.3665C124.157 75.3854 126.559 77.7469 129.641 77.7469C132.698 77.7469 134.276 75.4584 134.858 74.582L137.989 77.7469L139.736 75.9697L136.12 72.2691L139.056 66.3288ZM130.029 66.2071C128.792 65.0629 128.5 64.3812 128.5 63.6508C128.5 62.1901 129.471 61.4598 130.393 61.4598C131.17 61.4598 132.262 62.0684 132.262 63.5535C132.262 64.8925 131.388 65.4768 130.029 66.2071ZM133.111 72.7561C132.796 73.3403 131.801 75.3367 129.641 75.3367C127.797 75.3367 126.777 73.8759 126.777 72.3665C126.777 70.1998 128.33 69.3477 129.325 69.0069L133.111 72.7561Z" fill="#F47E00"/>
<path d="M33.711 95.5092V93.9642H29.7132V83.9607H28.0332V95.5092H33.711ZM43.454 95.5092V86.8634H41.8362V88.0807H41.8051C41.1829 87.1287 40.0784 86.6293 38.8807 86.6293C35.7851 86.6293 34.3073 89.1107 34.3073 91.2175C34.3073 93.496 35.9718 95.7277 38.8807 95.7277C40.0473 95.7277 41.1829 95.2283 41.8051 94.1671H41.8362V95.5092H43.454ZM41.8673 91.2019C41.8673 92.8562 40.5606 94.2451 38.8651 94.2451C37.154 94.2451 35.9251 92.7625 35.9251 91.2019C35.9251 89.8442 36.8895 88.1119 38.8807 88.1119C40.5451 88.1119 41.8673 89.3604 41.8673 91.2019ZM47.2222 95.5092V94.2607H47.2533C48.14 95.4468 49.4622 95.7277 50.2556 95.7277C52.7756 95.7277 54.6889 93.6833 54.6889 91.1863C54.6889 88.5177 52.5111 86.6293 50.2244 86.6293C49.0578 86.6293 47.9689 87.0819 47.2689 88.0651H47.2378V83.9607H45.62V95.5092H47.2222ZM47.1911 91.1551C47.1911 89.6257 48.3578 88.1119 50.1311 88.1119C51.8267 88.1119 53.0711 89.5633 53.0711 91.1863C53.0711 92.903 51.6867 94.2451 50.1311 94.2451C48.6844 94.2451 47.1911 93.1058 47.1911 91.1551ZM65.1804 91.1551C65.1804 88.6893 63.1427 86.6293 60.5296 86.6293C57.8541 86.6293 55.8785 88.7674 55.8785 91.1239C55.8785 93.3087 57.6363 95.7277 60.5296 95.7277C63.4538 95.7277 65.1804 93.2619 65.1804 91.1551ZM63.5626 91.1551C63.5626 92.7937 62.2715 94.2451 60.5296 94.2451C58.7252 94.2451 57.4963 92.7313 57.4963 91.1707C57.4963 89.6257 58.7096 88.1119 60.5296 88.1119C62.3493 88.1119 63.5626 89.6257 63.5626 91.1551ZM66.8113 86.8634V91.5452C66.8113 93.2775 67.2313 94.2451 67.9468 94.8693C68.569 95.4155 69.4246 95.7277 70.4046 95.7277C71.4935 95.7277 72.5046 95.3219 72.9402 94.5728H72.9713V95.5092H74.449V86.8634H72.8313V91.4984C72.8313 93.3868 71.9135 94.2451 70.5757 94.2451C69.3779 94.2451 68.429 93.6833 68.429 91.5452V86.8634H66.8113ZM78.1513 95.5092V90.7805C78.1513 89.5477 78.5868 88.8922 79.1002 88.6113C79.489 88.4084 80.0179 88.2992 80.2668 88.2992V86.6293C79.8624 86.6449 78.7579 86.6761 78.0735 87.6437H78.0424V86.8634H76.5335V95.5092H78.1513ZM94.0596 95.5092V83.9607H92.3796V88.939H87.6352V83.9607H85.9552V95.5092H87.6352V90.484H92.3796V95.5092H94.0596ZM97.8695 86.8634H96.2517V95.5092H97.8695V86.8634ZM97.8695 83.9607H96.2517V85.8646H97.8695V83.9607ZM101.576 95.5092V90.7805C101.576 89.5477 102.012 88.8922 102.525 88.6113C102.914 88.4084 103.443 88.2992 103.692 88.2992V86.6293C103.287 86.6449 102.183 86.6761 101.498 87.6437H101.467V86.8634H99.9583V95.5092H101.576ZM113.202 91.8886C113.218 91.7793 113.249 91.3424 113.249 91.0615C113.233 88.5333 111.196 86.6293 108.862 86.6293C106.436 86.6293 104.445 88.5801 104.445 91.1707C104.445 93.6208 106.389 95.7277 108.831 95.7277C110.169 95.7277 112.145 95.0254 112.969 92.7937H111.351C110.962 93.5428 110.091 94.2451 108.893 94.2451C107.805 94.2451 106.467 93.5584 106.062 91.8886H113.202ZM106.062 90.6401C106.14 89.376 107.291 88.1119 108.847 88.1119C110.402 88.1119 111.553 89.376 111.631 90.6401H106.062Z" fill="#F47E00"/>
</svg>
